# xmcd CD database file
#
# Track frame offsets:
#	150
#	21317
#	37425
#	58037
#	75595
#	97970
#	108707
#	132967
#	154015
#	176800
#	191600
#
# Disc length: 2928 seconds
#
# Revision: 0
# Processed by: cddbd v1.5.1PL2 Copyright (c) Steve Scherf et al.
# Submitted via: CDex 1.51
#
DISCID=970b6e0b
DTITLE=Gary Boudreault - L'album simple
DYEAR=2001
DGENRE=Québécois
TTITLE0=Le grand gigon
TTITLE1=laisser sa trace
TTITLE2=une femme
TTITLE3=tu m'as toujours blâmé
TTITLE4=31 décembre 1999
TTITLE5=le soleil encore
TTITLE6=le boxeur-poète
TTITLE7=le choix du silence
TTITLE8=le fils du militaire
TTITLE9=si j'avais un toupett
TTITLE10=Brandy nose
EXTD=YEAR: 2001
EXTT0=
EXTT1=
EXTT2=
EXTT3=
EXTT4=
EXTT5=
EXTT6=
EXTT7=
EXTT8=
EXTT9=
EXTT10=
PLAYORDER=
